<svg xmlns="http://www.w3.org/2000/svg" xmlns:xlink="http://www.w3.org/1999/xlink" id="body_1" preserveAspectRatio="xMinYMin meet" viewBox="0 0 793 1121"><defs><clipPath id="1"><path d="M0 841L0 -0.9199829L0 -0.9199829L595.32 -0.9199829L595.32 -0.9199829L595.32 841L595.32 841L0 841z" /></clipPath><clipPath id="2"><path d="M-3.815E-06 840.9997L595.32 840.9997L595.32 840.9997L595.32 -0.9202881L595.32 -0.9202881L-3.815E-06 -0.9202881z" /></clipPath><clipPath id="3"><path d="M-3.815E-06 840.9997L595.32 840.9997L595.32 840.9997L595.32 -0.9202881L595.32 -0.9202881L-3.815E-06 -0.9202881z" /></clipPath><clipPath id="4"><path d="M8.871E-06 841L595.32 841L595.32 841L595.32 -0.9199829L595.32 -0.9199829L8.871E-06 -0.9199829z" /></clipPath><clipPath id="5"><path d="M36 155.82L248.57 155.82L248.57 155.82L248.57 54.40002L248.57 54.40002L36 54.40002z" /></clipPath><clipPath id="6"><path d="M36 155.82L248.57 155.82L248.57 155.82L248.57 54.40002L248.57 54.40002L36 54.40002z" /></clipPath><clipPath id="7"><path d="M36 155.82L248.57 155.82L248.57 155.82L248.57 54.40002L248.57 54.40002L36 54.40002z" /></clipPath><clipPath id="8"><path d="M36 155.82L248.57 155.82L248.57 155.82L248.57 54.40002L248.57 54.40002L36 54.40002z" /></clipPath><clipPath id="9"><path d="M36 155.82L248.57 155.82L248.57 155.82L248.57 54.40002L248.57 54.40002L36 54.40002z" /></clipPath><clipPath id="10"><path d="M36 155.82L248.57 155.82L248.57 155.82L248.57 54.40002L248.57 54.40002L36 54.40002z" /></clipPath><clipPath id="11"><path d="M248.57 61L292.85 61L292.85 61L292.85 54.40002L292.85 54.40002L248.57 54.40002z" /></clipPath><clipPath id="12"><path d="M248.57 61L292.85 61L292.85 61L292.85 54.40002L292.85 54.40002L248.57 54.40002z" /></clipPath><clipPath id="13"><path d="M292.85 61L558.7 61L558.7 61L558.7 54.40002L558.7 54.40002L292.85 54.40002z" /></clipPath><clipPath id="14"><path d="M292.85 61L558.7 61L558.7 61L558.7 54.40002L558.7 54.40002L292.85 54.40002z" /></clipPath><clipPath id="15"><path d="M248.57 104.22L292.85 104.22L292.85 104.22L292.85 68.19598L292.85 68.19598L248.57 68.19598z" /></clipPath><clipPath id="16"><path d="M248.57 104.22L292.85 104.22L292.85 104.22L292.85 68.19598L292.85 68.19598L248.57 68.19598z" /></clipPath><clipPath id="17"><path d="M292.85 155.82L558.7 155.82L558.7 155.82L558.7 68.19598L558.7 68.19598L292.85 68.19598z" /></clipPath><clipPath id="18"><path d="M292.85 155.82L558.7 155.82L558.7 155.82L558.7 68.19598L558.7 68.19598L292.85 68.19598z" /></clipPath><clipPath id="19"><path d="M292.85 155.82L558.7 155.82L558.7 155.82L558.7 68.19598L558.7 68.19598L292.85 68.19598z" /></clipPath><clipPath id="20"><path d="M292.85 155.82L558.7 155.82L558.7 155.82L558.7 68.19598L558.7 68.19598L292.85 68.19598z" /></clipPath><clipPath id="21"><path d="M292.85 155.82L558.7 155.82L558.7 155.82L558.7 68.19598L558.7 68.19598L292.85 68.19598z" /></clipPath><clipPath id="22"><path d="M292.85 155.82L558.7 155.82L558.7 155.82L558.7 68.19598L558.7 68.19598L292.85 68.19598z" /></clipPath><clipPath id="23"><path d="M292.85 155.82L558.7 155.82L558.7 155.82L558.7 68.19598L558.7 68.19598L292.85 68.19598z" /></clipPath><clipPath id="24"><path d="M292.85 155.82L558.7 155.82L558.7 155.82L558.7 68.19598L558.7 68.19598L292.85 68.19598z" /></clipPath><clipPath id="25"><path d="M292.85 155.82L558.7 155.82L558.7 155.82L558.7 68.19598L558.7 68.19598L292.85 68.19598z" /></clipPath><clipPath id="26"><path d="M292.85 155.82L558.7 155.82L558.7 155.82L558.7 68.19598L558.7 68.19598L292.85 68.19598z" /></clipPath><clipPath id="27"><path d="M292.85 155.82L558.7 155.82L558.7 155.82L558.7 68.19598L558.7 68.19598L292.85 68.19598z" /></clipPath><clipPath id="28"><path d="M292.85 155.82L558.7 155.82L558.7 155.82L558.7 68.19598L558.7 68.19598L292.85 68.19598z" /></clipPath><clipPath id="29"><path d="M292.85 155.82L558.7 155.82L558.7 155.82L558.7 68.19598L558.7 68.19598L292.85 68.19598z" /></clipPath><clipPath id="30"><path d="M248.57 155.82L292.85 155.82L292.85 155.82L292.85 104.22L292.85 104.22L248.57 104.22z" /></clipPath><clipPath id="31"><path d="M248.57 155.82L292.85 155.82L292.85 155.82L292.85 104.22L292.85 104.22L248.57 104.22z" /></clipPath><clipPath id="32"><path d="M36 162.42L85.70399 162.42L85.70399 162.42L85.70399 155.82L85.70399 155.82L36 155.82z" /></clipPath><clipPath id="33"><path d="M36 162.42L85.70399 162.42L85.70399 162.42L85.70399 155.82L85.70399 155.82L36 155.82z" /></clipPath><clipPath id="34"><path d="M85.704 162.42L248.564 162.42L248.564 162.42L248.564 155.82L248.564 155.82L85.704 155.82z" /></clipPath><clipPath id="35"><path d="M85.704 162.42L248.564 162.42L248.564 162.42L248.564 155.82L248.564 155.82L85.704 155.82z" /></clipPath><clipPath id="36"><path d="M248.57 162.42L292.85 162.42L292.85 162.42L292.85 155.82L292.85 155.82L248.57 155.82z" /></clipPath><clipPath id="37"><path d="M248.57 162.42L292.85 162.42L292.85 162.42L292.85 155.82L292.85 155.82L248.57 155.82z" /></clipPath><clipPath id="38"><path d="M292.85 162.42L558.7 162.42L558.7 162.42L558.7 155.82L558.7 155.82L292.85 155.82z" /></clipPath><clipPath id="39"><path d="M292.85 162.42L558.7 162.42L558.7 162.42L558.7 155.82L558.7 155.82L292.85 155.82z" /></clipPath><clipPath id="40"><path d="M36 562.31L168.86 562.31L168.86 562.31L168.86 169.62L168.86 169.62L36 169.62z" /></clipPath><clipPath id="41"><path d="M36 562.31L168.86 562.31L168.86 562.31L168.86 169.62L168.86 169.62L36 169.62z" /></clipPath><clipPath id="42"><path d="M36 562.31L168.86 562.31L168.86 562.31L168.86 169.62L168.86 169.62L36 169.62z" /></clipPath><clipPath id="43"><path d="M168.86 562.31L558.69 562.31L558.69 562.31L558.69 169.62L558.69 169.62L168.86 169.62z" /></clipPath><clipPath id="44"><path d="M168.86 562.31L558.69 562.31L558.69 562.31L558.69 169.62L558.69 169.62L168.86 169.62z" /></clipPath><clipPath id="45"><path d="M168.86 562.31L558.69 562.31L558.69 562.31L558.69 169.62L558.69 169.62L168.86 169.62z" /></clipPath><clipPath id="46"><path d="M168.86 562.31L558.69 562.31L558.69 562.31L558.69 169.62L558.69 169.62L168.86 169.62z" /></clipPath><clipPath id="47"><path d="M168.86 562.31L558.69 562.31L558.69 562.31L558.69 169.62L558.69 169.62L168.86 169.62z" /></clipPath><clipPath id="48"><path d="M168.86 562.31L558.69 562.31L558.69 562.31L558.69 169.62L558.69 169.62L168.86 169.62z" /></clipPath><clipPath id="49"><path d="M168.86 562.31L558.69 562.31L558.69 562.31L558.69 169.62L558.69 169.62L168.86 169.62z" /></clipPath><clipPath id="50"><path d="M168.86 562.31L558.69 562.31L558.69 562.31L558.69 169.62L558.69 169.62L168.86 169.62z" /></clipPath><clipPath id="51"><path d="M168.86 562.31L558.69 562.31L558.69 562.31L558.69 169.62L558.69 169.62L168.86 169.62z" /></clipPath><clipPath id="52"><path d="M168.86 562.31L558.69 562.31L558.69 562.31L558.69 169.62L558.69 169.62L168.86 169.62z" /></clipPath><clipPath id="53"><path d="M168.86 562.31L558.69 562.31L558.69 562.31L558.69 169.62L558.69 169.62L168.86 169.62z" /></clipPath><clipPath id="54"><path d="M168.86 562.31L558.69 562.31L558.69 562.31L558.69 169.62L558.69 169.62L168.86 169.62z" /></clipPath><clipPath id="55"><path d="M168.86 562.31L558.69 562.31L558.69 562.31L558.69 169.62L558.69 169.62L168.86 169.62z" /></clipPath><clipPath id="56"><path d="M168.86 562.31L558.69 562.31L558.69 562.31L558.69 169.62L558.69 169.62L168.86 169.62z" /></clipPath><clipPath id="57"><path d="M168.86 562.31L558.69 562.31L558.69 562.31L558.69 169.62L558.69 169.62L168.86 169.62z" /></clipPath><clipPath id="58"><path d="M168.86 562.31L558.69 562.31L558.69 562.31L558.69 169.62L558.69 169.62L168.86 169.62z" /></clipPath><clipPath id="59"><path d="M168.86 562.31L558.69 562.31L558.69 562.31L558.69 169.62L558.69 169.62L168.86 169.62z" /></clipPath><clipPath id="60"><path d="M168.86 562.31L558.69 562.31L558.69 562.31L558.69 169.62L558.69 169.62L168.86 169.62z" /></clipPath><clipPath id="61"><path d="M168.86 562.31L558.69 562.31L558.69 562.31L558.69 169.62L558.69 169.62L168.86 169.62z" /></clipPath><clipPath id="62"><path d="M168.86 562.31L558.69 562.31L558.69 562.31L558.69 169.62L558.69 169.62L168.86 169.62z" /></clipPath><clipPath id="63"><path d="M168.86 562.31L558.69 562.31L558.69 562.31L558.69 169.62L558.69 169.62L168.86 169.62z" /></clipPath><clipPath id="64"><path d="M168.86 562.31L558.69 562.31L558.69 562.31L558.69 169.62L558.69 169.62L168.86 169.62z" /></clipPath><clipPath id="65"><path d="M168.86 562.31L558.69 562.31L558.69 562.31L558.69 169.62L558.69 169.62L168.86 169.62z" /></clipPath><clipPath id="66"><path d="M168.86 562.31L558.69 562.31L558.69 562.31L558.69 169.62L558.69 169.62L168.86 169.62z" /></clipPath><clipPath id="67"><path d="M168.86 562.31L558.69 562.31L558.69 562.31L558.69 169.62L558.69 169.62L168.86 169.62z" /></clipPath><clipPath id="68"><path d="M168.86 562.31L558.69 562.31L558.69 562.31L558.69 169.62L558.69 169.62L168.86 169.62z" /></clipPath><clipPath id="69"><path d="M168.86 562.31L558.69 562.31L558.69 562.31L558.69 169.62L558.69 169.62L168.86 169.62z" /></clipPath><clipPath id="70"><path d="M168.86 562.31L558.69 562.31L558.69 562.31L558.69 169.62L558.69 169.62L168.86 169.62z" /></clipPath><clipPath id="71"><path d="M168.86 562.31L558.69 562.31L558.69 562.31L558.69 169.62L558.69 169.62L168.86 169.62z" /></clipPath><clipPath id="72"><path d="M168.86 562.31L558.69 562.31L558.69 562.31L558.69 169.62L558.69 169.62L168.86 169.62z" /></clipPath><clipPath id="73"><path d="M168.86 562.31L558.69 562.31L558.69 562.31L558.69 169.62L558.69 169.62L168.86 169.62z" /></clipPath><clipPath id="74"><path d="M168.86 562.31L558.69 562.31L558.69 562.31L558.69 169.62L558.69 169.62L168.86 169.62z" /></clipPath><clipPath id="75"><path d="M168.86 562.31L558.69 562.31L558.69 562.31L558.69 169.62L558.69 169.62L168.86 169.62z" /></clipPath><clipPath id="76"><path d="M168.86 562.31L558.69 562.31L558.69 562.31L558.69 169.62L558.69 169.62L168.86 169.62z" /></clipPath><clipPath id="77"><path d="M168.86 562.31L558.69 562.31L558.69 562.31L558.69 169.62L558.69 169.62L168.86 169.62z" /></clipPath><clipPath id="78"><path d="M168.86 562.31L558.69 562.31L558.69 562.31L558.69 169.62L558.69 169.62L168.86 169.62z" /></clipPath><clipPath id="79"><path d="M168.86 562.31L558.69 562.31L558.69 562.31L558.69 169.62L558.69 169.62L168.86 169.62z" /></clipPath><clipPath id="80"><path d="M168.86 562.31L558.69 562.31L558.69 562.31L558.69 169.62L558.69 169.62L168.86 169.62z" /></clipPath><clipPath id="81"><path d="M168.86 562.31L558.69 562.31L558.69 562.31L558.69 169.62L558.69 169.62L168.86 169.62z" /></clipPath><clipPath id="82"><path d="M168.86 562.31L558.69 562.31L558.69 562.31L558.69 169.62L558.69 169.62L168.86 169.62z" /></clipPath><clipPath id="83"><path d="M168.86 562.31L558.69 562.31L558.69 562.31L558.69 169.62L558.69 169.62L168.86 169.62z" /></clipPath><clipPath id="84"><path d="M168.86 562.31L558.69 562.31L558.69 562.31L558.69 169.62L558.69 169.62L168.86 169.62z" /></clipPath><clipPath id="85"><path d="M168.86 562.31L558.69 562.31L558.69 562.31L558.69 169.62L558.69 169.62L168.86 169.62z" /></clipPath><clipPath id="86"><path d="M168.86 562.31L558.69 562.31L558.69 562.31L558.69 169.62L558.69 169.62L168.86 169.62z" /></clipPath><clipPath id="87"><path d="M168.86 562.31L558.69 562.31L558.69 562.31L558.69 169.62L558.69 169.62L168.86 169.62z" /></clipPath><clipPath id="88"><path d="M168.86 562.31L558.69 562.31L558.69 562.31L558.69 169.62L558.69 169.62L168.86 169.62z" /></clipPath><clipPath id="89"><path d="M168.86 562.31L558.69 562.31L558.69 562.31L558.69 169.62L558.69 169.62L168.86 169.62z" /></clipPath><clipPath id="90"><path d="M168.86 562.31L558.69 562.31L558.69 562.31L558.69 169.62L558.69 169.62L168.86 169.62z" /></clipPath><clipPath id="91"><path d="M168.86 562.31L558.69 562.31L558.69 562.31L558.69 169.62L558.69 169.62L168.86 169.62z" /></clipPath><clipPath id="92"><path d="M168.86 562.31L558.69 562.31L558.69 562.31L558.69 169.62L558.69 169.62L168.86 169.62z" /></clipPath><clipPath id="93"><path d="M168.86 562.31L558.69 562.31L558.69 562.31L558.69 169.62L558.69 169.62L168.86 169.62z" /></clipPath><clipPath id="94"><path d="M168.86 562.31L558.69 562.31L558.69 562.31L558.69 169.62L558.69 169.62L168.86 169.62z" /></clipPath><clipPath id="95"><path d="M168.86 562.31L558.69 562.31L558.69 562.31L558.69 169.62L558.69 169.62L168.86 169.62z" /></clipPath><clipPath id="96"><path d="M168.86 562.31L558.69 562.31L558.69 562.31L558.69 169.62L558.69 169.62L168.86 169.62z" /></clipPath><clipPath id="97"><path d="M168.86 562.31L558.69 562.31L558.69 562.31L558.69 169.62L558.69 169.62L168.86 169.62z" /></clipPath><clipPath id="98"><path d="M168.86 562.31L558.69 562.31L558.69 562.31L558.69 169.62L558.69 169.62L168.86 169.62z" /></clipPath><clipPath id="99"><path d="M168.86 562.31L558.69 562.31L558.69 562.31L558.69 169.62L558.69 169.62L168.86 169.62z" /></clipPath><clipPath id="100"><path d="M168.86 562.31L558.69 562.31L558.69 562.31L558.69 169.62L558.69 169.62L168.86 169.62z" /></clipPath><clipPath id="101"><path d="M168.86 562.31L558.69 562.31L558.69 562.31L558.69 169.62L558.69 169.62L168.86 169.62z" /></clipPath><clipPath id="102"><path d="M168.86 562.31L558.69 562.31L558.69 562.31L558.69 169.62L558.69 169.62L168.86 169.62z" /></clipPath><clipPath id="103"><path d="M168.86 562.31L558.69 562.31L558.69 562.31L558.69 169.62L558.69 169.62L168.86 169.62z" /></clipPath><clipPath id="104"><path d="M168.86 562.31L558.69 562.31L558.69 562.31L558.69 169.62L558.69 169.62L168.86 169.62z" /></clipPath><clipPath id="105"><path d="M168.86 562.31L558.69 562.31L558.69 562.31L558.69 169.62L558.69 169.62L168.86 169.62z" /></clipPath><clipPath id="106"><path d="M168.86 562.31L558.69 562.31L558.69 562.31L558.69 169.62L558.69 169.62L168.86 169.62z" /></clipPath><clipPath id="107"><path d="M168.86 562.31L558.69 562.31L558.69 562.31L558.69 169.62L558.69 169.62L168.86 169.62z" /></clipPath><clipPath id="108"><path d="M168.86 562.31L558.69 562.31L558.69 562.31L558.69 169.62L558.69 169.62L168.86 169.62z" /></clipPath><clipPath id="109"><path d="M168.86 562.31L558.69 562.31L558.69 562.31L558.69 169.62L558.69 169.62L168.86 169.62z" /></clipPath><clipPath id="110"><path d="M168.86 562.31L558.69 562.31L558.69 562.31L558.69 169.62L558.69 169.62L168.86 169.62z" /></clipPath><clipPath id="111"><path d="M168.86 562.31L558.69 562.31L558.69 562.31L558.69 169.62L558.69 169.62L168.86 169.62z" /></clipPath><clipPath id="112"><path d="M168.86 562.31L558.69 562.31L558.69 562.31L558.69 169.62L558.69 169.62L168.86 169.62z" /></clipPath><clipPath id="113"><path d="M168.86 562.31L558.69 562.31L558.69 562.31L558.69 169.62L558.69 169.62L168.86 169.62z" /></clipPath><clipPath id="114"><path d="M168.86 562.31L558.69 562.31L558.69 562.31L558.69 169.62L558.69 169.62L168.86 169.62z" /></clipPath><clipPath id="115"><path d="M168.86 562.31L558.69 562.31L558.69 562.31L558.69 169.62L558.69 169.62L168.86 169.62z" /></clipPath><clipPath id="116"><path d="M168.86 562.31L558.69 562.31L558.69 562.31L558.69 169.62L558.69 169.62L168.86 169.62z" /></clipPath><clipPath id="117"><path d="M168.86 562.31L558.69 562.31L558.69 562.31L558.69 169.62L558.69 169.62L168.86 169.62z" /></clipPath><clipPath id="118"><path d="M168.86 562.31L558.69 562.31L558.69 562.31L558.69 169.62L558.69 169.62L168.86 169.62z" /></clipPath><clipPath id="119"><path d="M168.86 562.31L558.69 562.31L558.69 562.31L558.69 169.62L558.69 169.62L168.86 169.62z" /></clipPath><clipPath id="120"><path d="M168.86 562.31L558.69 562.31L558.69 562.31L558.69 169.62L558.69 169.62L168.86 169.62z" /></clipPath><clipPath id="121"><path d="M168.86 562.31L558.69 562.31L558.69 562.31L558.69 169.62L558.69 169.62L168.86 169.62z" /></clipPath><clipPath id="122"><path d="M168.86 562.31L558.69 562.31L558.69 562.31L558.69 169.62L558.69 169.62L168.86 169.62z" /></clipPath><clipPath id="123"><path d="M168.86 562.31L558.69 562.31L558.69 562.31L558.69 169.62L558.69 169.62L168.86 169.62z" /></clipPath><clipPath id="124"><path d="M168.86 562.31L558.69 562.31L558.69 562.31L558.69 169.62L558.69 169.62L168.86 169.62z" /></clipPath><clipPath id="125"><path d="M168.86 562.31L558.69 562.31L558.69 562.31L558.69 169.62L558.69 169.62L168.86 169.62z" /></clipPath><clipPath id="126"><path d="M168.86 562.31L558.69 562.31L558.69 562.31L558.69 169.62L558.69 169.62L168.86 169.62z" /></clipPath><clipPath id="127"><path d="M168.86 562.31L558.69 562.31L558.69 562.31L558.69 169.62L558.69 169.62L168.86 169.62z" /></clipPath><clipPath id="128"><path d="M168.86 562.31L558.69 562.31L558.69 562.31L558.69 169.62L558.69 169.62L168.86 169.62z" /></clipPath><clipPath id="129"><path d="M168.86 562.31L558.69 562.31L558.69 562.31L558.69 169.62L558.69 169.62L168.86 169.62z" /></clipPath><clipPath id="130"><path d="M168.86 562.31L558.69 562.31L558.69 562.31L558.69 169.62L558.69 169.62L168.86 169.62z" /></clipPath><clipPath id="131"><path d="M168.86 562.31L558.69 562.31L558.69 562.31L558.69 169.62L558.69 169.62L168.86 169.62z" /></clipPath><clipPath id="132"><path d="M168.86 562.31L558.69 562.31L558.69 562.31L558.69 169.62L558.69 169.62L168.86 169.62z" /></clipPath><clipPath id="133"><path d="M168.86 562.31L558.69 562.31L558.69 562.31L558.69 169.62L558.69 169.62L168.86 169.62z" /></clipPath><clipPath id="134"><path d="M168.86 562.31L558.69 562.31L558.69 562.31L558.69 169.62L558.69 169.62L168.86 169.62z" /></clipPath><clipPath id="135"><path d="M168.86 562.31L558.69 562.31L558.69 562.31L558.69 169.62L558.69 169.62L168.86 169.62z" /></clipPath><clipPath id="136"><path d="M168.86 562.31L558.69 562.31L558.69 562.31L558.69 169.62L558.69 169.62L168.86 169.62z" /></clipPath><clipPath id="137"><path d="M168.86 562.31L558.69 562.31L558.69 562.31L558.69 169.62L558.69 169.62L168.86 169.62z" /></clipPath><clipPath id="138"><path d="M168.86 562.31L558.69 562.31L558.69 562.31L558.69 169.62L558.69 169.62L168.86 169.62z" /></clipPath><clipPath id="139"><path d="M168.86 562.31L558.69 562.31L558.69 562.31L558.69 169.62L558.69 169.62L168.86 169.62z" /></clipPath><clipPath id="140"><path d="M168.86 562.31L558.69 562.31L558.69 562.31L558.69 169.62L558.69 169.62L168.86 169.62z" /></clipPath><clipPath id="141"><path d="M168.86 562.31L558.69 562.31L558.69 562.31L558.69 169.62L558.69 169.62L168.86 169.62z" /></clipPath><clipPath id="142"><path d="M168.86 562.31L558.69 562.31L558.69 562.31L558.69 169.62L558.69 169.62L168.86 169.62z" /></clipPath><clipPath id="143"><path d="M168.86 562.31L558.69 562.31L558.69 562.31L558.69 169.62L558.69 169.62L168.86 169.62z" /></clipPath><clipPath id="144"><path d="M168.86 562.31L558.69 562.31L558.69 562.31L558.69 169.62L558.69 169.62L168.86 169.62z" /></clipPath><clipPath id="145"><path d="M168.86 562.31L558.69 562.31L558.69 562.31L558.69 169.62L558.69 169.62L168.86 169.62z" /></clipPath><clipPath id="146"><path d="M168.86 562.31L558.69 562.31L558.69 562.31L558.69 169.62L558.69 169.62L168.86 169.62z" /></clipPath><clipPath id="147"><path d="M168.86 562.31L558.69 562.31L558.69 562.31L558.69 169.62L558.69 169.62L168.86 169.62z" /></clipPath><clipPath id="148"><path d="M168.86 562.31L558.69 562.31L558.69 562.31L558.69 169.62L558.69 169.62L168.86 169.62z" /></clipPath><clipPath id="149"><path d="M168.86 562.31L558.69 562.31L558.69 562.31L558.69 169.62L558.69 169.62L168.86 169.62z" /></clipPath><clipPath id="150"><path d="M168.86 562.31L558.69 562.31L558.69 562.31L558.69 169.62L558.69 169.62L168.86 169.62z" /></clipPath><clipPath id="151"><path d="M168.86 562.31L558.69 562.31L558.69 562.31L558.69 169.62L558.69 169.62L168.86 169.62z" /></clipPath><clipPath id="152"><path d="M168.86 562.31L558.69 562.31L558.69 562.31L558.69 169.62L558.69 169.62L168.86 169.62z" /></clipPath><clipPath id="153"><path d="M168.86 562.31L558.69 562.31L558.69 562.31L558.69 169.62L558.69 169.62L168.86 169.62z" /></clipPath><clipPath id="154"><path d="M36 685.46L168.86 685.46L168.86 685.46L168.86 569.52L168.86 569.52L36 569.52z" /></clipPath><clipPath id="155"><path d="M36 685.46L168.86 685.46L168.86 685.46L168.86 569.52L168.86 569.52L36 569.52z" /></clipPath><clipPath id="156"><path d="M36 685.46L168.86 685.46L168.86 685.46L168.86 569.52L168.86 569.52L36 569.52z" /></clipPath><clipPath id="157"><path d="M36 685.46L168.86 685.46L168.86 685.46L168.86 569.52L168.86 569.52L36 569.52z" /></clipPath><clipPath id="158"><path d="M168.86 685.46L558.69 685.46L558.69 685.46L558.69 569.52L558.69 569.52L168.86 569.52z" /></clipPath><clipPath id="159"><path d="M168.86 685.46L558.69 685.46L558.69 685.46L558.69 569.52L558.69 569.52L168.86 569.52z" /></clipPath><clipPath id="160"><path d="M168.86 685.46L558.69 685.46L558.69 685.46L558.69 569.52L558.69 569.52L168.86 569.52z" /></clipPath><clipPath id="161"><path d="M168.86 685.46L558.69 685.46L558.69 685.46L558.69 569.52L558.69 569.52L168.86 569.52z" /></clipPath><clipPath id="162"><path d="M168.86 685.46L558.69 685.46L558.69 685.46L558.69 569.52L558.69 569.52L168.86 569.52z" /></clipPath><clipPath id="163"><path d="M168.86 685.46L558.69 685.46L558.69 685.46L558.69 569.52L558.69 569.52L168.86 569.52z" /></clipPath><clipPath id="164"><path d="M168.86 685.46L558.69 685.46L558.69 685.46L558.69 569.52L558.69 569.52L168.86 569.52z" /></clipPath><clipPath id="165"><path d="M168.86 685.46L558.69 685.46L558.69 685.46L558.69 569.52L558.69 569.52L168.86 569.52z" /></clipPath><clipPath id="166"><path d="M168.86 685.46L558.69 685.46L558.69 685.46L558.69 569.52L558.69 569.52L168.86 569.52z" /></clipPath><clipPath id="167"><path d="M168.86 685.46L558.69 685.46L558.69 685.46L558.69 569.52L558.69 569.52L168.86 569.52z" /></clipPath><clipPath id="168"><path d="M168.86 685.46L558.69 685.46L558.69 685.46L558.69 569.52L558.69 569.52L168.86 569.52z" /></clipPath><clipPath id="169"><path d="M168.86 685.46L558.69 685.46L558.69 685.46L558.69 569.52L558.69 569.52L168.86 569.52z" /></clipPath><clipPath id="170"><path d="M168.86 685.46L558.69 685.46L558.69 685.46L558.69 569.52L558.69 569.52L168.86 569.52z" /></clipPath><clipPath id="171"><path d="M168.86 685.46L558.69 685.46L558.69 685.46L558.69 569.52L558.69 569.52L168.86 569.52z" /></clipPath><clipPath id="172"><path d="M168.86 685.46L558.69 685.46L558.69 685.46L558.69 569.52L558.69 569.52L168.86 569.52z" /></clipPath><clipPath id="173"><path d="M168.86 685.46L558.69 685.46L558.69 685.46L558.69 569.52L558.69 569.52L168.86 569.52z" /></clipPath><clipPath id="174"><path d="M168.86 685.46L558.69 685.46L558.69 685.46L558.69 569.52L558.69 569.52L168.86 569.52z" /></clipPath><clipPath id="175"><path d="M168.86 685.46L558.69 685.46L558.69 685.46L558.69 569.52L558.69 569.52L168.86 569.52z" /></clipPath><clipPath id="176"><path d="M168.86 685.46L558.69 685.46L558.69 685.46L558.69 569.52L558.69 569.52L168.86 569.52z" /></clipPath><clipPath id="177"><path d="M168.86 685.46L558.69 685.46L558.69 685.46L558.69 569.52L558.69 569.52L168.86 569.52z" /></clipPath><clipPath id="178"><path d="M168.86 685.46L558.69 685.46L558.69 685.46L558.69 569.52L558.69 569.52L168.86 569.52z" /></clipPath><clipPath id="179"><path d="M168.86 685.46L558.69 685.46L558.69 685.46L558.69 569.52L558.69 569.52L168.86 569.52z" /></clipPath><clipPath id="180"><path d="M168.86 685.46L558.69 685.46L558.69 685.46L558.69 569.52L558.69 569.52L168.86 569.52z" /></clipPath><clipPath id="181"><path d="M168.86 685.46L558.69 685.46L558.69 685.46L558.69 569.52L558.69 569.52L168.86 569.52z" /></clipPath><clipPath id="182"><path d="M168.86 685.46L558.69 685.46L558.69 685.46L558.69 569.52L558.69 569.52L168.86 569.52z" /></clipPath><clipPath id="183"><path d="M168.86 685.46L558.69 685.46L558.69 685.46L558.69 569.52L558.69 569.52L168.86 569.52z" /></clipPath><clipPath id="184"><path d="M168.86 685.46L558.69 685.46L558.69 685.46L558.69 569.52L558.69 569.52L168.86 569.52z" /></clipPath><clipPath id="185"><path d="M168.86 685.46L558.69 685.46L558.69 685.46L558.69 569.52L558.69 569.52L168.86 569.52z" /></clipPath><clipPath id="186"><path d="M168.86 685.46L558.69 685.46L558.69 685.46L558.69 569.52L558.69 569.52L168.86 569.52z" /></clipPath><clipPath id="187"><path d="M168.86 685.46L558.69 685.46L558.69 685.46L558.69 569.52L558.69 569.52L168.86 569.52z" /></clipPath><clipPath id="188"><path d="M168.86 685.46L558.69 685.46L558.69 685.46L558.69 569.52L558.69 569.52L168.86 569.52z" /></clipPath><clipPath id="189"><path d="M168.86 685.46L558.69 685.46L558.69 685.46L558.69 569.52L558.69 569.52L168.86 569.52z" /></clipPath><clipPath id="190"><path d="M168.86 685.46L558.69 685.46L558.69 685.46L558.69 569.52L558.69 569.52L168.86 569.52z" /></clipPath><clipPath id="191"><path d="M168.86 685.46L558.69 685.46L558.69 685.46L558.69 569.52L558.69 569.52L168.86 569.52z" /></clipPath><clipPath id="192"><path d="M168.86 685.46L558.69 685.46L558.69 685.46L558.69 569.52L558.69 569.52L168.86 569.52z" /></clipPath><clipPath id="193"><path d="M168.86 685.46L558.69 685.46L558.69 685.46L558.69 569.52L558.69 569.52L168.86 569.52z" /></clipPath><clipPath id="194"><path d="M168.86 685.46L558.69 685.46L558.69 685.46L558.69 569.52L558.69 569.52L168.86 569.52z" /></clipPath><clipPath id="195"><path d="M168.86 685.46L558.69 685.46L558.69 685.46L558.69 569.52L558.69 569.52L168.86 569.52z" /></clipPath><clipPath id="196"><path d="M168.86 685.46L558.69 685.46L558.69 685.46L558.69 569.52L558.69 569.52L168.86 569.52z" /></clipPath><clipPath id="197"><path d="M168.86 685.46L558.69 685.46L558.69 685.46L558.69 569.52L558.69 569.52L168.86 569.52z" /></clipPath><clipPath id="198"><path d="M168.86 685.46L558.69 685.46L558.69 685.46L558.69 569.52L558.69 569.52L168.86 569.52z" /></clipPath><clipPath id="199"><path d="M168.86 685.46L558.69 685.46L558.69 685.46L558.69 569.52L558.69 569.52L168.86 569.52z" /></clipPath><clipPath id="200"><path d="M168.86 685.46L558.69 685.46L558.69 685.46L558.69 569.52L558.69 569.52L168.86 569.52z" /></clipPath><clipPath id="201"><path d="M168.86 685.46L558.69 685.46L558.69 685.46L558.69 569.52L558.69 569.52L168.86 569.52z" /></clipPath><clipPath id="202"><path d="M168.86 685.46L558.69 685.46L558.69 685.46L558.69 569.52L558.69 569.52L168.86 569.52z" /></clipPath><clipPath id="203"><path d="M168.86 685.46L558.69 685.46L558.69 685.46L558.69 569.52L558.69 569.52L168.86 569.52z" /></clipPath><clipPath id="204"><path d="M168.86 685.46L558.69 685.46L558.69 685.46L558.69 569.52L558.69 569.52L168.86 569.52z" /></clipPath><clipPath id="205"><path d="M168.86 685.46L558.69 685.46L558.69 685.46L558.69 569.52L558.69 569.52L168.86 569.52z" /></clipPath><clipPath id="206"><path d="M168.86 685.46L558.69 685.46L558.69 685.46L558.69 569.52L558.69 569.52L168.86 569.52z" /></clipPath><clipPath id="207"><path d="M168.86 685.46L558.69 685.46L558.69 685.46L558.69 569.52L558.69 569.52L168.86 569.52z" /></clipPath><clipPath id="208"><path d="M168.86 685.46L558.69 685.46L558.69 685.46L558.69 569.52L558.69 569.52L168.86 569.52z" /></clipPath><clipPath id="209"><path d="M168.86 685.46L558.69 685.46L558.69 685.46L558.69 569.52L558.69 569.52L168.86 569.52z" /></clipPath><clipPath id="210"><path d="M168.86 685.46L558.69 685.46L558.69 685.46L558.69 569.52L558.69 569.52L168.86 569.52z" /></clipPath><clipPath id="211"><path d="M36 692.06L158.54 692.06L158.54 692.06L158.54 685.46L158.54 685.46L36 685.46z" /></clipPath><clipPath id="212"><path d="M36 692.06L158.54 692.06L158.54 692.06L158.54 685.46L158.54 685.46L36 685.46z" /></clipPath><clipPath id="213"><path d="M158.54 692.06L168.86 692.06L168.86 692.06L168.86 685.46L168.86 685.46L158.54 685.46z" /></clipPath><clipPath id="214"><path d="M158.54 692.06L168.86 692.06L168.86 692.06L168.86 685.46L168.86 685.46L158.54 685.46z" /></clipPath><clipPath id="215"><path d="M168.86 692.06L281.92 692.06L281.92 692.06L281.92 685.46L281.92 685.46L168.86 685.46z" /></clipPath><clipPath id="216"><path d="M168.86 692.06L281.92 692.06L281.92 692.06L281.92 685.46L281.92 685.46L168.86 685.46z" /></clipPath><clipPath id="217"><path d="M281.93 692.06L291.89 692.06L291.89 692.06L291.89 685.46L291.89 685.46L281.93 685.46z" /></clipPath><clipPath id="218"><path d="M281.93 692.06L291.89 692.06L291.89 692.06L291.89 685.46L291.89 685.46L281.93 685.46z" /></clipPath><clipPath id="219"><path d="M291.89 692.06L407.83 692.06L407.83 692.06L407.83 685.46L407.83 685.46L291.89 685.46z" /></clipPath><clipPath id="220"><path d="M291.89 692.06L407.83 692.06L407.83 692.06L407.83 685.46L407.83 685.46L291.89 685.46z" /></clipPath><clipPath id="221"><path d="M407.83 692.06L417.91 692.06L417.91 692.06L417.91 685.46L417.91 685.46L407.83 685.46z" /></clipPath><clipPath id="222"><path d="M407.83 692.06L417.91 692.06L417.91 692.06L417.91 685.46L417.91 685.46L407.83 685.46z" /></clipPath><clipPath id="223"><path d="M417.91 692.06L558.69 692.06L558.69 692.06L558.69 685.46L558.69 685.46L417.91 685.46z" /></clipPath><clipPath id="224"><path d="M417.91 692.06L558.69 692.06L558.69 692.06L558.69 685.46L558.69 685.46L417.91 685.46z" /></clipPath><clipPath id="225"><path d="M36 809.2L281.93 809.2L281.93 809.2L281.93 699.26L281.93 699.26L36 699.26z" /></clipPath><clipPath id="226"><path d="M36 809.2L281.93 809.2L281.93 809.2L281.93 699.26L281.93 699.26L36 699.26z" /></clipPath><clipPath id="227"><path d="M36 809.2L281.93 809.2L281.93 809.2L281.93 699.26L281.93 699.26L36 699.26z" /></clipPath><clipPath id="228"><path d="M36 809.2L281.93 809.2L281.93 809.2L281.93 699.26L281.93 699.26L36 699.26z" /></clipPath><clipPath id="229"><path d="M36 809.2L281.93 809.2L281.93 809.2L281.93 699.26L281.93 699.26L36 699.26z" /></clipPath><clipPath id="230"><path d="M36 809.2L281.93 809.2L281.93 809.2L281.93 699.26L281.93 699.26L36 699.26z" /></clipPath><clipPath id="231"><path d="M36 809.2L281.93 809.2L281.93 809.2L281.93 699.26L281.93 699.26L36 699.26z" /></clipPath><clipPath id="232"><path d="M36 809.2L281.93 809.2L281.93 809.2L281.93 699.26L281.93 699.26L36 699.26z" /></clipPath><clipPath id="233"><path d="M281.93 809.2L291.89 809.2L291.89 809.2L291.89 699.26L291.89 699.26L281.93 699.26z" /></clipPath><clipPath id="234"><path d="M281.93 809.2L291.89 809.2L291.89 809.2L291.89 699.26L291.89 699.26L281.93 699.26z" /></clipPath><clipPath id="235"><path d="M291.89 809.2L407.83 809.2L407.83 809.2L407.83 699.26L407.83 699.26L291.89 699.26z" /></clipPath><clipPath id="236"><path d="M291.89 809.2L407.83 809.2L407.83 809.2L407.83 699.26L407.83 699.26L291.89 699.26z" /></clipPath><clipPath id="237"><path d="M291.89 809.2L407.83 809.2L407.83 809.2L407.83 699.26L407.83 699.26L291.89 699.26z" /></clipPath><clipPath id="238"><path d="M291.89 809.2L407.83 809.2L407.83 809.2L407.83 699.26L407.83 699.26L291.89 699.26z" /></clipPath><clipPath id="239"><path d="M291.89 809.2L407.83 809.2L407.83 809.2L407.83 699.26L407.83 699.26L291.89 699.26z" /></clipPath><clipPath id="240"><path d="M291.89 809.2L407.83 809.2L407.83 809.2L407.83 699.26L407.83 699.26L291.89 699.26z" /></clipPath><clipPath id="241"><path d="M291.89 809.2L407.83 809.2L407.83 809.2L407.83 699.26L407.83 699.26L291.89 699.26z" /></clipPath><clipPath id="242"><path d="M291.89 809.2L407.83 809.2L407.83 809.2L407.83 699.26L407.83 699.26L291.89 699.26z" /></clipPath><clipPath id="243"><path d="M291.89 809.2L407.83 809.2L407.83 809.2L407.83 699.26L407.83 699.26L291.89 699.26z" /></clipPath><clipPath id="244"><path d="M291.89 809.2L407.83 809.2L407.83 809.2L407.83 699.26L407.83 699.26L291.89 699.26z" /></clipPath><clipPath id="245"><path d="M291.89 809.2L407.83 809.2L407.83 809.2L407.83 699.26L407.83 699.26L291.89 699.26z" /></clipPath><clipPath id="246"><path d="M291.89 809.2L407.83 809.2L407.83 809.2L407.83 699.26L407.83 699.26L291.89 699.26z" /></clipPath><clipPath id="247"><path d="M291.89 809.2L407.83 809.2L407.83 809.2L407.83 699.26L407.83 699.26L291.89 699.26z" /></clipPath><clipPath id="248"><path d="M407.83 809.2L417.91 809.2L417.91 809.2L417.91 699.26L417.91 699.26L407.83 699.26z" /></clipPath><clipPath id="249"><path d="M407.83 809.2L417.91 809.2L417.91 809.2L417.91 699.26L417.91 699.26L407.83 699.26z" /></clipPath><clipPath id="250"><path d="M417.91 809.2L558.69 809.2L558.69 809.2L558.69 699.26L558.69 699.26L417.91 699.26z" /></clipPath><clipPath id="251"><path d="M417.91 809.2L558.69 809.2L558.69 809.2L558.69 699.26L558.69 699.26L417.91 699.26z" /></clipPath><clipPath id="252"><path d="M417.91 809.2L558.69 809.2L558.69 809.2L558.69 699.26L558.69 699.26L417.91 699.26z" /></clipPath><clipPath id="253"><path d="M417.91 809.2L558.69 809.2L558.69 809.2L558.69 699.26L558.69 699.26L417.91 699.26z" /></clipPath><clipPath id="254"><path d="M417.91 809.2L558.69 809.2L558.69 809.2L558.69 699.26L558.69 699.26L417.91 699.26z" /></clipPath><clipPath id="255"><path d="M417.91 809.2L558.69 809.2L558.69 809.2L558.69 699.26L558.69 699.26L417.91 699.26z" /></clipPath><clipPath id="256"><path d="M417.91 809.2L558.69 809.2L558.69 809.2L558.69 699.26L558.69 699.26L417.91 699.26z" /></clipPath><clipPath id="257"><path d="M417.91 809.2L558.69 809.2L558.69 809.2L558.69 699.26L558.69 699.26L417.91 699.26z" /></clipPath><clipPath id="258"><path d="M417.91 809.2L558.69 809.2L558.69 809.2L558.69 699.26L558.69 699.26L417.91 699.26z" /></clipPath><clipPath id="259"><path d="M417.91 809.2L558.69 809.2L558.69 809.2L558.69 699.26L558.69 699.26L417.91 699.26z" /></clipPath><clipPath id="260"><path d="M417.91 809.2L558.69 809.2L558.69 809.2L558.69 699.26L558.69 699.26L417.91 699.26z" /></clipPath><clipPath id="261"><path d="M417.91 809.2L558.69 809.2L558.69 809.2L558.69 699.26L558.69 699.26L417.91 699.26z" /></clipPath><clipPath id="262"><path d="M417.91 809.2L558.69 809.2L558.69 809.2L558.69 699.26L558.69 699.26L417.91 699.26z" /></clipPath><clipPath id="263"><path d="M8.871E-06 841L595.32 841L595.32 841L595.32 -0.9199829L595.32 -0.9199829L8.871E-06 -0.9199829z" /></clipPath></defs><g transform="matrix(1.333333 0 0 1.333333 0 0)"><g><g clip-path="url(#1)"><g clip-path="url(#2)"><path transform="matrix(1 0 0 -1 0 841)" d="M-27 -6.1199L615.1 -6.1199L615.1 -6.1199L615.1 841.9301L615.1 841.9301L-27 841.9301z" stroke="none" fill="#FBE284" fill-rule="evenodd" /></g><g clip-path="url(#3)"><path transform="matrix(1 0 0 -1 0 841)" d="M-27 -6.1199L615.1 -6.1199L615.1 -6.1199L615.1 841.9301L615.1 841.9301L-27 841.9301z" stroke="#7B9BA1" stroke-width="1" fill="none" /></g><g clip-path="url(#4)"></g><g clip-path="url(#5)"><g clip-path="url(#6)"></g><g clip-path="url(#7)"></g><g clip-path="url(#8)"></g><g clip-path="url(#9)"></g><g clip-path="url(#10)"></g></g><g clip-path="url(#11)"><g clip-path="url(#12)"></g></g><path transform="matrix(1 0 0 -1 0 841)" d="M292.85 780L558.7 780L558.7 780L558.7 786.6L558.7 786.6L292.85 786.6z" stroke="none" fill="#000000" fill-rule="evenodd" /><g clip-path="url(#13)"><path transform="matrix(1 0 0 -1 0 841)" d="M298.25 780L553.3 780L553.3 780L553.3 786.6L553.3 786.6L298.25 786.6z" stroke="none" fill="#000000" fill-rule="evenodd" /><g clip-path="url(#14)"></g></g><g clip-path="url(#15)"><g clip-path="url(#16)"></g></g><g clip-path="url(#17)"><g clip-path="url(#18)"></g><g clip-path="url(#19)"></g><g clip-path="url(#20)"></g><g clip-path="url(#21)"></g><g clip-path="url(#22)"></g><g clip-path="url(#23)"></g><g clip-path="url(#24)"></g><g clip-path="url(#25)"></g><g clip-path="url(#26)"></g><g clip-path="url(#27)"></g><g clip-path="url(#28)"></g><g clip-path="url(#29)"></g></g><g clip-path="url(#30)"><g clip-path="url(#31)"></g></g><path transform="matrix(1 0 0 -1 0 841)" d="M36 678.58L85.70399 678.58L85.70399 678.58L85.70399 685.18L85.70399 685.18L36 685.18z" stroke="none" fill="#000000" fill-rule="evenodd" /><g clip-path="url(#32)"><path transform="matrix(1 0 0 -1 0 841)" d="M41.4 678.58L80.304 678.58L80.304 678.58L80.304 685.18L80.304 685.18L41.4 685.18z" stroke="none" fill="#000000" fill-rule="evenodd" /><g clip-path="url(#33)"></g></g><path transform="matrix(1 0 0 -1 0 841)" d="M85.704 678.58L248.564 678.58L248.564 678.58L248.564 685.18L248.564 685.18L85.704 685.18z" stroke="none" fill="#000000" fill-rule="evenodd" /><g clip-path="url(#34)"><path transform="matrix(1 0 0 -1 0 841)" d="M91.104 678.58L243.164 678.58L243.164 678.58L243.164 685.18L243.164 685.18L91.104 685.18z" stroke="none" fill="#000000" fill-rule="evenodd" /><g clip-path="url(#35)"></g></g><path transform="matrix(1 0 0 -1 0 841)" d="M248.57 678.58L292.85 678.58L292.85 678.58L292.85 685.18L292.85 685.18L248.57 685.18z" stroke="none" fill="#000000" fill-rule="evenodd" /><g clip-path="url(#36)"><path transform="matrix(1 0 0 -1 0 841)" d="M253.97 678.58L287.45 678.58L287.45 678.58L287.45 685.18L287.45 685.18L253.97 685.18z" stroke="none" fill="#000000" fill-rule="evenodd" /><g clip-path="url(#37)"></g></g><path transform="matrix(1 0 0 -1 0 841)" d="M292.85 678.58L558.7 678.58L558.7 678.58L558.7 685.18L558.7 685.18L292.85 685.18z" stroke="none" fill="#000000" fill-rule="evenodd" /><g clip-path="url(#38)"><path transform="matrix(1 0 0 -1 0 841)" d="M298.25 678.58L553.3 678.58L553.3 678.58L553.3 685.18L553.3 685.18L298.25 685.18z" stroke="none" fill="#000000" fill-rule="evenodd" /><g clip-path="url(#39)"></g></g><g clip-path="url(#40)"><g clip-path="url(#41)"></g><g clip-path="url(#42)"></g></g><g clip-path="url(#43)"><g clip-path="url(#44)"></g><g clip-path="url(#45)"></g><g clip-path="url(#46)"></g><g clip-path="url(#47)"></g><g clip-path="url(#48)"></g><g clip-path="url(#49)"></g><g clip-path="url(#50)"></g><g clip-path="url(#51)"></g><g clip-path="url(#52)"></g><g clip-path="url(#53)"></g><g clip-path="url(#54)"></g><g clip-path="url(#55)"></g><g clip-path="url(#56)"></g><g clip-path="url(#57)"></g><g clip-path="url(#58)"></g><g clip-path="url(#59)"></g><g clip-path="url(#60)"></g><g clip-path="url(#61)"></g><g clip-path="url(#62)"></g><g clip-path="url(#63)"></g><g clip-path="url(#64)"></g><g clip-path="url(#65)"></g><g clip-path="url(#66)"></g><g clip-path="url(#67)"></g><g clip-path="url(#68)"></g><g clip-path="url(#69)"></g><g clip-path="url(#70)"></g><g clip-path="url(#71)"></g><g clip-path="url(#72)"></g><g clip-path="url(#73)"></g><g clip-path="url(#74)"></g><g clip-path="url(#75)"></g><g clip-path="url(#76)"></g><g clip-path="url(#77)"></g><g clip-path="url(#78)"></g><g clip-path="url(#79)"></g><g clip-path="url(#80)"></g><g clip-path="url(#81)"></g><g clip-path="url(#82)"></g><g clip-path="url(#83)"></g><g clip-path="url(#84)"></g><g clip-path="url(#85)"></g><g clip-path="url(#86)"></g><g clip-path="url(#87)"></g><g clip-path="url(#88)"></g><g clip-path="url(#89)"></g><g clip-path="url(#90)"></g><g clip-path="url(#91)"></g><g clip-path="url(#92)"></g><g clip-path="url(#93)"></g><g clip-path="url(#94)"></g><g clip-path="url(#95)"></g><g clip-path="url(#96)"></g><g clip-path="url(#97)"></g><g clip-path="url(#98)"></g><g clip-path="url(#99)"></g><g clip-path="url(#100)"></g><g clip-path="url(#101)"></g><g clip-path="url(#102)"></g><g clip-path="url(#103)"></g><g clip-path="url(#104)"></g><g clip-path="url(#105)"></g><g clip-path="url(#106)"></g><g clip-path="url(#107)"></g><g clip-path="url(#108)"></g><g clip-path="url(#109)"></g><g clip-path="url(#110)"></g><g clip-path="url(#111)"></g><g clip-path="url(#112)"></g><g clip-path="url(#113)"></g><g clip-path="url(#114)"></g><g clip-path="url(#115)"></g><g clip-path="url(#116)"></g><g clip-path="url(#117)"></g><g clip-path="url(#118)"></g><g clip-path="url(#119)"></g><g clip-path="url(#120)"></g><g clip-path="url(#121)"></g><g clip-path="url(#122)"></g><g clip-path="url(#123)"></g><g clip-path="url(#124)"></g><g clip-path="url(#125)"></g><g clip-path="url(#126)"></g><g clip-path="url(#127)"></g><g clip-path="url(#128)"></g><g clip-path="url(#129)"></g><g clip-path="url(#130)"></g><g clip-path="url(#131)"></g><g clip-path="url(#132)"></g><g clip-path="url(#133)"></g><g clip-path="url(#134)"></g><g clip-path="url(#135)"></g><g clip-path="url(#136)"></g><g clip-path="url(#137)"></g><g clip-path="url(#138)"></g><g clip-path="url(#139)"></g><g clip-path="url(#140)"></g><g clip-path="url(#141)"></g><g clip-path="url(#142)"></g><g clip-path="url(#143)"></g><g clip-path="url(#144)"></g><g clip-path="url(#145)"></g><g clip-path="url(#146)"></g><g clip-path="url(#147)"></g><g clip-path="url(#148)"></g><g clip-path="url(#149)"></g><g clip-path="url(#150)"></g><g clip-path="url(#151)"></g><g clip-path="url(#152)"></g><g clip-path="url(#153)"></g></g><g clip-path="url(#154)"><g clip-path="url(#155)"></g><g clip-path="url(#156)"></g><g clip-path="url(#157)"></g></g><g clip-path="url(#158)"><g clip-path="url(#159)"></g><g clip-path="url(#160)"></g><g clip-path="url(#161)"></g><g clip-path="url(#162)"></g><g clip-path="url(#163)"></g><g clip-path="url(#164)"></g><g clip-path="url(#165)"></g><g clip-path="url(#166)"></g><g clip-path="url(#167)"></g><g clip-path="url(#168)"></g><g clip-path="url(#169)"></g><g clip-path="url(#170)"></g><g clip-path="url(#171)"></g><g clip-path="url(#172)"></g><g clip-path="url(#173)"></g><g clip-path="url(#174)"></g><g clip-path="url(#175)"></g><g clip-path="url(#176)"></g><g clip-path="url(#177)"></g><g clip-path="url(#178)"></g><g clip-path="url(#179)"></g><g clip-path="url(#180)"></g><g clip-path="url(#181)"></g><g clip-path="url(#182)"></g><g clip-path="url(#183)"></g><g clip-path="url(#184)"></g><g clip-path="url(#185)"></g><g clip-path="url(#186)"></g><g clip-path="url(#187)"></g><g clip-path="url(#188)"></g><g clip-path="url(#189)"></g><g clip-path="url(#190)"></g><g clip-path="url(#191)"></g><g clip-path="url(#192)"></g><g clip-path="url(#193)"></g><g clip-path="url(#194)"></g><g clip-path="url(#195)"></g><g clip-path="url(#196)"></g><g clip-path="url(#197)"></g><g clip-path="url(#198)"></g><g clip-path="url(#199)"></g><g clip-path="url(#200)"></g><g clip-path="url(#201)"></g><g clip-path="url(#202)"></g><g clip-path="url(#203)"></g><g clip-path="url(#204)"></g><g clip-path="url(#205)"></g><g clip-path="url(#206)"></g><g clip-path="url(#207)"></g><g clip-path="url(#208)"></g><g clip-path="url(#209)"></g><g clip-path="url(#210)"></g></g><path transform="matrix(1 0 0 -1 0 841)" d="M36 148.94L158.54 148.94L158.54 148.94L158.54 155.54L158.54 155.54L36 155.54z" stroke="none" fill="#000000" fill-rule="evenodd" /><g clip-path="url(#211)"><path transform="matrix(1 0 0 -1 0 841)" d="M36.72 148.94L152.78 148.94L152.78 148.94L152.78 155.54L152.78 155.54L36.72 155.54z" stroke="none" fill="#000000" fill-rule="evenodd" /><g clip-path="url(#212)"></g></g><path transform="matrix(1 0 0 -1 0 841)" d="M158.54 148.94L168.86 148.94L168.86 148.94L168.86 155.54L168.86 155.54L158.54 155.54z" stroke="none" fill="#000000" fill-rule="evenodd" /><g clip-path="url(#213)"><path transform="matrix(1 0 0 -1 0 841)" d="M159.26 148.94L163.1 148.94L163.1 148.94L163.1 155.54L163.1 155.54L159.26 155.54z" stroke="none" fill="#000000" fill-rule="evenodd" /><g clip-path="url(#214)"></g></g><path transform="matrix(1 0 0 -1 0 841)" d="M168.86 148.94L281.92 148.94L281.92 148.94L281.92 155.54L281.92 155.54L168.86 155.54z" stroke="none" fill="#000000" fill-rule="evenodd" /><g clip-path="url(#215)"><path transform="matrix(1 0 0 -1 0 841)" d="M169.58 148.94L276.16 148.94L276.16 148.94L276.16 155.54L276.16 155.54L169.58 155.54z" stroke="none" fill="#000000" fill-rule="evenodd" /><g clip-path="url(#216)"></g></g><g clip-path="url(#217)"><g clip-path="url(#218)"></g></g><path transform="matrix(1 0 0 -1 0 841)" d="M291.89 148.94L407.83 148.94L407.83 148.94L407.83 155.54L407.83 155.54L291.89 155.54z" stroke="none" fill="#000000" fill-rule="evenodd" /><g clip-path="url(#219)"><path transform="matrix(1 0 0 -1 0 841)" d="M292.61 148.94L402.07 148.94L402.07 148.94L402.07 155.54L402.07 155.54L292.61 155.54z" stroke="none" fill="#000000" fill-rule="evenodd" /><g clip-path="url(#220)"></g></g><g clip-path="url(#221)"><g clip-path="url(#222)"></g></g><path transform="matrix(1 0 0 -1 0 841)" d="M417.91 148.94L558.69 148.94L558.69 148.94L558.69 155.54L558.69 155.54L417.91 155.54z" stroke="none" fill="#000000" fill-rule="evenodd" /><g clip-path="url(#223)"><path transform="matrix(1 0 0 -1 0 841)" d="M418.63 148.94L552.93 148.94L552.93 148.94L552.93 155.54L552.93 155.54L418.63 155.54z" stroke="none" fill="#000000" fill-rule="evenodd" /><g clip-path="url(#224)"></g></g><g clip-path="url(#225)"><g clip-path="url(#226)"></g><g clip-path="url(#227)"></g><g clip-path="url(#228)"></g><g clip-path="url(#229)"></g><g clip-path="url(#230)"></g><g clip-path="url(#231)"></g><g clip-path="url(#232)"></g></g><g clip-path="url(#233)"><g clip-path="url(#234)"></g></g><g clip-path="url(#235)"><g clip-path="url(#236)"></g><g clip-path="url(#237)"></g><g clip-path="url(#238)"></g><g clip-path="url(#239)"></g><g clip-path="url(#240)"></g><g clip-path="url(#241)"></g><g clip-path="url(#242)"></g><g clip-path="url(#243)"></g><g clip-path="url(#244)"></g><g clip-path="url(#245)"></g><g clip-path="url(#246)"></g><g clip-path="url(#247)"></g></g><g clip-path="url(#248)"><g clip-path="url(#249)"></g></g><g clip-path="url(#250)"><g clip-path="url(#251)"></g><g clip-path="url(#252)"></g><g clip-path="url(#253)"></g><g clip-path="url(#254)"></g><g clip-path="url(#255)"></g><g clip-path="url(#256)"></g><g clip-path="url(#257)"></g><g clip-path="url(#258)"></g><g clip-path="url(#259)"></g><g clip-path="url(#260)"></g><g clip-path="url(#261)"></g><g clip-path="url(#262)"></g></g><g clip-path="url(#263)"></g></g></g></g></svg>